<?xml version="1.0" standalone="no"?>
<!DOCTYPE svg PUBLIC "-//W3C//DTD SVG 20010904//EN"
 "http://www.w3.org/TR/2001/REC-SVG-20010904/DTD/svg10.dtd">
<svg version="1.0" xmlns="http://www.w3.org/2000/svg"
 width="200.000000pt" height="200.000000pt" viewBox="0 0 200.000000 200.000000"
 preserveAspectRatio="xMidYMid meet">

<g transform="translate(0.000000,200.000000) scale(0.100000,-0.100000)"
fill="#000000" stroke="none">
<path d="M936 1695 c-54 -91 -102 -165 -105 -165 -3 0 -21 27 -40 60 -19 32
-38 57 -42 55 -3 -3 -50 -77 -104 -165 l-97 -160 -164 0 c-139 0 -164 -2 -164
-15 0 -13 23 -15 150 -15 90 0 150 -4 150 -10 0 -5 -24 -49 -54 -98 l-54 -89
284 -469 c156 -258 287 -470 291 -471 5 -2 141 218 304 489 l297 491 -44 72
c-24 40 -44 75 -44 79 0 3 63 6 140 6 118 0 140 2 140 15 0 13 -24 15 -153 15
l-153 0 -109 181 c-60 99 -112 182 -115 184 -4 2 -17 -14 -29 -35 -12 -22 -25
-40 -29 -40 -4 0 -40 57 -81 125 -40 69 -74 125 -75 125 0 -1 -46 -75 -100
-165z m237 -787 c-11 -18 -54 -95 -97 -170 -43 -76 -80 -138 -81 -138 -11 0
-155 245 -151 256 11 28 25 12 86 -96 34 -60 63 -110 65 -110 2 0 45 65 96
145 51 80 95 145 97 145 2 0 -5 -15 -15 -32z"/>
</g>
</svg>
